<!-- Generator: Adobe Illustrator 24.2.1, SVG Export Plug-In  -->
<svg version="1.1" xmlns="http://www.w3.org/2000/svg" xmlns:xlink="http://www.w3.org/1999/xlink" x="0px" y="0px" width="544.2px"
     height="544.2px" viewBox="0 0 544.2 544.2" style="overflow:visible;enable-background:new 0 0 544.2 544.2;"
     xml:space="preserve">
<defs>
</defs>
<g>
    <path style="fill:#23A07B;" d="M272.1,0C2.1,0,0,121.8,0,272.1s2.1,272.1,272.1,272.1s272.1-121.8,272.1-272.1S542.1,0,272.1,0z"/>
    <g id="Group_1_" transform="translate(137.000000, 133.000000)">
        <polygon id="Shape_12_" style="fill:#FFFFFF;" points="66.4,153.7 93.9,153.7 93.9,126.3 66.4,126.3       "/>
        <polygon id="Shape_11_" style="fill:#FFFFFF;" points="121.3,153.7 148.7,153.7 148.7,126.3 121.3,126.3       "/>
        <polygon id="Shape_10_" style="fill:#FFFFFF;" points="176.2,153.7 203.6,153.7 203.6,126.3 176.2,126.3       "/>
        <polygon id="Shape_9_" style="fill:#FFFFFF;" points="66.4,208.6 93.9,208.6 93.9,181.2 66.4,181.2        "/>
        <polygon id="Shape_8_" style="fill:#FFFFFF;" points="121.3,208.6 148.7,208.6 148.7,181.2 121.3,181.2        "/>
        <path id="Shape_7_" style="fill:#FFFFFF;" d="M272.2,263.5h-13.7v13.7c0,7.6-6.1,13.7-13.7,13.7c-7.6,0-13.7-6.1-13.7-13.7v-13.7
            h-13.7c-7.6,0-13.7-6.1-13.7-13.7s6.1-13.7,13.7-13.7H231v-13.7c0-7.6,6.1-13.7,13.7-13.7c7.6,0,13.7,6.1,13.7,13.7V236h13.7
            c7.6,0,13.7,6.1,13.7,13.7S279.7,263.5,272.2,263.5L272.2,263.5z M25.3,249.7V85.1h219.5v82.3c-45.4,0-82.3,36.9-82.3,82.3H25.3z
             M272.2,172.2V71.4V16.5c0-7.6-6.1-13.7-13.7-13.7H11.5C4,2.8-2.2,9-2.2,16.5v54.9v192c0,7.6,6.1,13.7,13.7,13.7h155.7
            c11.3,31.9,41.7,54.9,77.5,54.9c45.4,0,82.3-36.9,82.3-82.3C327,214,304.1,183.6,272.2,172.2L272.2,172.2z"/>
    </g>
</g>
</svg>
