<?xml version="1.0" encoding="UTF-8"?>
<svg width="512px" height="512px" viewBox="0 0 512 512" version="1.1" xmlns="http://www.w3.org/2000/svg" xmlns:xlink="http://www.w3.org/1999/xlink">
    <!-- Generator: Sketch 47.1 (45422) - http://www.bohemiancoding.com/sketch -->
    <title>icon</title>
    <desc>Created with Sketch.</desc>
    <defs></defs>
    <g id="Page-1" stroke="none" stroke-width="1" fill="none" fill-rule="evenodd">
        <g id="icon">
            <g>
                <circle id="Oval-Copy" fill="#23A07B" cx="256" cy="256" r="256"></circle>
                <g id="Group" transform="translate(137.000000, 133.000000)" fill-rule="nonzero" fill="#FFFFFF">
                    <polygon id="Shape" points="59.5833333 131.083333 83.4166667 131.083333 83.4166667 107.25 59.5833333 107.25"></polygon>
                    <polygon id="Shape" points="107.25 131.083333 131.083333 131.083333 131.083333 107.25 107.25 107.25"></polygon>
                    <polygon id="Shape" points="154.916667 131.083333 178.75 131.083333 178.75 107.25 154.916667 107.25"></polygon>
                    <polygon id="Shape" points="59.5833333 178.75 83.4166667 178.75 83.4166667 154.916667 59.5833333 154.916667"></polygon>
                    <polygon id="Shape" points="107.25 178.75 131.083333 178.75 131.083333 154.916667 107.25 154.916667"></polygon>
                    <path d="M238.333333,226.416667 L226.416667,226.416667 L226.416667,238.333333 C226.416667,244.911333 221.078,250.25 214.5,250.25 C207.922,250.25 202.583333,244.911333 202.583333,238.333333 L202.583333,226.416667 L190.666667,226.416667 C184.088667,226.416667 178.75,221.078 178.75,214.5 C178.75,207.922 184.088667,202.583333 190.666667,202.583333 L202.583333,202.583333 L202.583333,190.666667 C202.583333,184.088667 207.922,178.75 214.5,178.75 C221.078,178.75 226.416667,184.088667 226.416667,190.666667 L226.416667,202.583333 L238.333333,202.583333 C244.911333,202.583333 250.25,207.922 250.25,214.5 C250.25,221.078 244.911333,226.416667 238.333333,226.416667 L238.333333,226.416667 Z M23.8333333,214.5 L23.8333333,71.5 L214.5,71.5 L214.5,143 C175.06775,143 143,175.06775 143,214.5 L23.8333333,214.5 Z M238.333333,147.170833 L238.333333,59.5833333 L238.333333,11.9166667 C238.333333,5.32675 232.994667,0 226.416667,0 L11.9166667,0 C5.33866667,0 0,5.32675 0,11.9166667 L0,59.5833333 L0,226.416667 C0,233.006583 5.33866667,238.333333 11.9166667,238.333333 L147.170833,238.333333 C157.014,266.063417 183.43325,286 214.5,286 C253.93225,286 286,253.93225 286,214.5 C286,183.445167 266.063417,157.014 238.333333,147.170833 L238.333333,147.170833 Z" id="Shape"></path>
                </g>
            </g>
        </g>
    </g>
</svg>